ply
format ascii 1.0
comment VCGLIB generated
element vertex 31
property float x
property float y
property float z
element face 24
property list uchar int vertex_indices
end_header
19.685 39.3701 39.3701 
19.685 19.685 19.685 
39.3701 39.3701 39.3701 
39.3701 59.0551 39.3701 
19.685 39.3701 39.3701 
39.3701 39.3701 39.3701 
0 19.685 19.685 
39.3701 19.685 19.685 
19.685 59.0551 39.3701 
0 39.3701 39.3701 
0 0 0 
19.685 0 0 
0 39.3701 39.3701 
39.3701 78.7402 39.3701 
39.3701 0 0 
0 59.0551 39.3701 
19.685 78.7402 39.3701 
39.3701 78.7402 39.3701 
39.3701 98.4252 19.685 
19.685 78.7402 39.3701 
0 78.7402 39.3701 
19.685 98.4252 19.685 
0 78.7402 39.3701 
39.3701 118.11 0 
0 98.4252 19.685 
19.685 98.4252 19.685 
39.3701 118.11 0 
19.685 118.11 0 
19.685 118.11 0 
0 98.4252 19.685 
0 118.11 0 
3 0 1 2 
3 3 4 5 
3 0 6 1 
3 2 1 7 
3 3 8 4 
3 9 6 0 
3 6 10 1 
3 1 11 7 
3 8 12 4 
3 13 8 3 
3 1 10 11 
3 7 11 14 
3 8 15 12 
3 13 16 8 
3 16 15 8 
3 17 18 19 
3 16 20 15 
3 19 18 21 
3 19 21 22 
3 18 23 21 
3 22 21 24 
3 25 26 27 
3 21 28 24 
3 29 27 30 
