ply
format ascii 1.0
comment VCGLIB generated
element vertex 149
property float x
property float y
property float z
element face 128
property list uchar int vertex_indices
end_header
0.19685 0.19685 0.0393701 
0.0984252 0.19685 0.0393701 
0.0984252 0.172244 0.0393701 
0 0.172244 0.0393701 
0.19685 0.172244 0.0393701 
0 0.19685 0.0393701 
0 0.147638 0.0393701 
0.0984252 0.147638 0.0393701 
-0.0984252 0.172244 0.0393701 
-0.0984252 0.147638 0.0393701 
0.19685 0.147638 0.0393701 
-0.0984252 0.19685 0.0393701 
0 0.123031 0.0393701 
-0.0984252 0.123031 0.0393701 
0.0984252 0.123031 0.0393701 
-0.19685 0.172244 0.0393701 
-0.19685 0.147638 0.0393701 
-0.19685 0.123031 0.0393701 
0.19685 0.123031 0.0393701 
-0.19685 0.19685 0.0393701 
-0.0984252 0.0984252 0.0393701 
0 0.0984252 0.0393701 
-0.19685 0.0984252 0.0393701 
0.0984252 0.0984252 0.0393701 
0.19685 0.0984252 0.0393701 
-0.0984252 0.0984252 0.0393701 
-0.19685 0.0984252 0.0393701 
-0.19685 0.0738189 0.019685 
0 0.0984252 0.0393701 
-0.0984252 0.0984252 0.0393701 
-0.0984252 0.0738189 0.019685 
0.0984252 0.0984252 0.0393701 
0 0.0984252 0.0393701 
0 0.0738189 0.019685 
0.19685 0.0984252 0.0393701 
0.0984252 0.0984252 0.0393701 
0.0984252 0.0738189 0.019685 
-0.0984252 0.0984252 0.0393701 
-0.19685 0.0738189 0.019685 
-0.0984252 0.0738189 0.019685 
0 0.0738189 0.019685 
0.0984252 0.0984252 0.0393701 
0 0.0738189 0.019685 
0.0984252 0.0738189 0.019685 
0.19685 0.0738189 0.019685 
-0.0984252 0.0738189 0.019685 
-0.19685 0.0738189 0.019685 
-0.19685 0.0492126 -4.38037e-019 
0 0.0738189 0.019685 
-0.0984252 0.0738189 0.019685 
-0.0984252 0.0492126 -4.38037e-019 
0.0984252 0.0738189 0.019685 
0 0.0738189 0.019685 
0 0.0492126 -4.38037e-019 
0.19685 0.0738189 0.019685 
0.0984252 0.0738189 0.019685 
0.0984252 0.0492126 -4.38037e-019 
-0.0984252 0.0492126 -4.38037e-019 
0 0.0492126 -4.38037e-019 
0.0984252 0.0738189 0.019685 
0 0.0492126 -4.38037e-019 
0.0984252 0.0492126 -4.38037e-019 
0.19685 0.0492126 -4.38037e-019 
-0.0984252 0.0492126 -4.38037e-019 
-0.19685 0.0492126 -4.38037e-019 
-0.19685 0.0246063 -4.38037e-019 
0 0.0492126 -4.38037e-019 
-0.0984252 0.0246063 -4.38037e-019 
0.0984252 0.0492126 -4.38037e-019 
0 0.0246063 -4.38037e-019 
0.19685 0.0492126 -4.38037e-019 
0.0984252 0.0246063 -4.38037e-019 
0.19685 0.0246063 -4.38037e-019 
-0.19685 0 -4.38037e-019 
-0.0984252 0 -4.38037e-019 
0 0 -4.38037e-019 
0.0984252 0 -4.38037e-019 
0.19685 0 -4.38037e-019 
-0.19685 -0.0246063 -4.38037e-019 
-0.0984252 -0.0246063 -4.38037e-019 
0 -0.0246063 -4.38037e-019 
0.0984252 -0.0246063 -4.38037e-019 
0.19685 -0.0246063 -4.38037e-019 
-0.19685 -0.0492126 -4.38037e-019 
-0.0984252 -0.0492126 -4.38037e-019 
0 -0.0492126 -4.38037e-019 
0.0984252 -0.0492126 -4.38037e-019 
0.19685 -0.0492126 -4.38037e-019 
-0.0984252 -0.0492126 -4.38037e-019 
-0.19685 -0.0492126 -4.38037e-019 
-0.19685 -0.0738189 0.019685 
0 -0.0492126 -4.38037e-019 
-0.0984252 -0.0492126 -4.38037e-019 
-0.0984252 -0.0738189 0.019685 
0.0984252 -0.0492126 -4.38037e-019 
0 -0.0492126 -4.38037e-019 
0 -0.0738189 0.019685 
0.19685 -0.0492126 -4.38037e-019 
0.0984252 -0.0492126 -4.38037e-019 
0.0984252 -0.0738189 0.019685 
-0.0984252 -0.0738189 0.019685 
0 -0.0738189 0.019685 
0.0984252 -0.0738189 0.019685 
0.19685 -0.0738189 0.019685 
-0.0984252 -0.0738189 0.019685 
-0.19685 -0.0738189 0.019685 
-0.19685 -0.0984252 0.0393701 
0 -0.0738189 0.019685 
-0.0984252 -0.0738189 0.019685 
-0.0984252 -0.0984252 0.0393701 
0.0984252 -0.0738189 0.019685 
0 -0.0738189 0.019685 
0 -0.0984252 0.0393701 
0.19685 -0.0738189 0.019685 
0.0984252 -0.0738189 0.019685 
0.0984252 -0.0984252 0.0393701 
-0.0984252 -0.0984252 0.0393701 
0 -0.0738189 0.019685 
-0.0984252 -0.0984252 0.0393701 
0 -0.0984252 0.0393701 
0.0984252 -0.0984252 0.0393701 
0.19685 -0.0738189 0.019685 
0.0984252 -0.0984252 0.0393701 
0.19685 -0.0984252 0.0393701 
-0.0984252 -0.0984252 0.0393701 
-0.19685 -0.0984252 0.0393701 
-0.19685 -0.123031 0.0393701 
0 -0.0984252 0.0393701 
-0.0984252 -0.123031 0.0393701 
0.0984252 -0.0984252 0.0393701 
0 -0.123031 0.0393701 
0.19685 -0.0984252 0.0393701 
0.0984252 -0.123031 0.0393701 
0.19685 -0.123031 0.0393701 
-0.19685 -0.147638 0.0393701 
-0.0984252 -0.147638 0.0393701 
0 -0.147638 0.0393701 
0.0984252 -0.147638 0.0393701 
0.19685 -0.147638 0.0393701 
-0.19685 -0.172244 0.0393701 
-0.0984252 -0.172244 0.0393701 
0 -0.172244 0.0393701 
0.0984252 -0.172244 0.0393701 
0.19685 -0.172244 0.0393701 
-0.19685 -0.19685 0.0393701 
-0.0984252 -0.19685 0.0393701 
0 -0.19685 0.0393701 
0.0984252 -0.19685 0.0393701 
0.19685 -0.19685 0.0393701 
3 0 1 2 
3 1 3 2 
3 0 2 4 
3 1 5 3 
3 2 3 6 
3 4 2 7 
3 5 8 3 
3 2 6 7 
3 3 9 6 
3 4 7 10 
3 5 11 8 
3 3 8 9 
3 7 6 12 
3 6 9 13 
3 10 7 14 
3 11 15 8 
3 8 16 9 
3 6 13 12 
3 7 12 14 
3 9 17 13 
3 10 14 18 
3 11 19 15 
3 8 15 16 
3 9 16 17 
3 12 13 20 
3 14 12 21 
3 13 17 22 
3 18 14 23 
3 13 22 20 
3 12 20 21 
3 14 21 23 
3 18 23 24 
3 25 26 27 
3 28 29 30 
3 31 32 33 
3 34 35 36 
3 37 38 39 
3 28 30 40 
3 41 42 43 
3 34 36 44 
3 45 46 47 
3 48 49 50 
3 51 52 53 
3 54 55 56 
3 45 47 57 
3 48 50 58 
3 59 60 61 
3 54 56 62 
3 63 64 65 
3 66 63 67 
3 68 66 69 
3 70 68 71 
3 63 65 67 
3 66 67 69 
3 68 69 71 
3 70 71 72 
3 67 65 73 
3 69 67 74 
3 71 69 75 
3 72 71 76 
3 67 73 74 
3 69 74 75 
3 71 75 76 
3 72 76 77 
3 74 73 78 
3 75 74 79 
3 76 75 80 
3 77 76 81 
3 74 78 79 
3 75 79 80 
3 76 80 81 
3 77 81 82 
3 79 78 83 
3 80 79 84 
3 81 80 85 
3 82 81 86 
3 79 83 84 
3 80 84 85 
3 81 85 86 
3 82 86 87 
3 88 89 90 
3 91 92 93 
3 94 95 96 
3 97 98 99 
3 88 90 100 
3 91 93 101 
3 94 96 102 
3 97 99 103 
3 104 105 106 
3 107 108 109 
3 110 111 112 
3 113 114 115 
3 104 106 116 
3 117 118 119 
3 110 112 120 
3 121 122 123 
3 124 125 126 
3 127 124 128 
3 129 127 130 
3 131 129 132 
3 124 126 128 
3 127 128 130 
3 129 130 132 
3 131 132 133 
3 128 126 134 
3 130 128 135 
3 132 130 136 
3 133 132 137 
3 128 134 135 
3 130 135 136 
3 132 136 137 
3 133 137 138 
3 135 134 139 
3 136 135 140 
3 137 136 141 
3 138 137 142 
3 135 139 140 
3 136 140 141 
3 137 141 142 
3 138 142 143 
3 140 139 144 
3 141 140 145 
3 142 141 146 
3 143 142 147 
3 140 144 145 
3 141 145 146 
3 142 146 147 
3 143 147 148 
