ply
format ascii 1.0
comment VCGLIB generated
element vertex 81
property float x
property float y
property float z
element face 128
property list uchar int vertex_indices
end_header
9.84252 39.3701 0 
4.92126 39.3701 0 
4.92126 34.4488 0 
0 34.4488 0 
9.84252 34.4488 0 
0 39.3701 0 
0 29.5276 0 
14.7638 39.3701 0 
4.92126 29.5276 0 
14.7638 34.4488 0 
9.84252 29.5276 0 
0 24.6063 0 
19.685 39.3701 0 
4.92126 24.6063 0 
19.685 34.4488 0 
14.7638 29.5276 0 
9.84252 24.6063 0 
0 19.685 0 
24.6063 39.3701 0 
4.92126 19.685 0 
19.685 29.5276 0 
24.6063 34.4488 0 
14.7638 24.6063 0 
9.84252 19.685 0 
0 14.7638 0 
29.5276 39.3701 0 
4.92126 14.7638 0 
24.6063 29.5276 0 
19.685 24.6063 0 
29.5276 34.4488 0 
14.7638 19.685 0 
9.84252 14.7638 0 
0 9.84252 0 
34.4488 39.3701 0 
4.92126 9.84252 0 
29.5276 29.5276 0 
24.6063 24.6063 0 
19.685 19.685 0 
34.4488 34.4488 0 
14.7638 14.7638 0 
9.84252 9.84252 0 
0 4.92126 0 
39.3701 39.3701 0 
4.92126 4.92126 0 
34.4488 29.5276 0 
29.5276 24.6063 0 
24.6063 19.685 0 
19.685 14.7638 0 
39.3701 34.4488 0 
14.7638 9.84252 0 
9.84252 4.92126 0 
0 0 0 
4.92126 0 0 
34.4488 24.6063 0 
39.3701 29.5276 0 
29.5276 19.685 0 
24.6063 14.7638 0 
19.685 9.84252 0 
14.7638 4.92126 0 
9.84252 0 0 
39.3701 24.6063 0 
34.4488 19.685 0 
29.5276 14.7638 0 
24.6063 9.84252 0 
19.685 4.92126 0 
14.7638 0 0 
39.3701 19.685 0 
34.4488 14.7638 0 
29.5276 9.84252 0 
24.6063 4.92126 0 
19.685 0 0 
39.3701 14.7638 0 
34.4488 9.84252 0 
29.5276 4.92126 0 
24.6063 0 0 
39.3701 9.84252 0 
34.4488 4.92126 0 
29.5276 0 0 
39.3701 4.92126 0 
34.4488 0 0 
39.3701 0 0 
3 0 1 2 
3 1 3 2 
3 0 2 4 
3 1 5 3 
3 2 3 6 
3 7 0 4 
3 4 2 8 
3 2 6 8 
3 7 4 9 
3 4 8 10 
3 8 6 11 
3 12 7 9 
3 9 4 10 
3 10 8 13 
3 8 11 13 
3 12 9 14 
3 15 9 10 
3 10 13 16 
3 13 11 17 
3 14 9 15 
3 18 12 14 
3 15 10 16 
3 16 13 19 
3 13 17 19 
3 14 15 20 
3 18 14 21 
3 15 16 22 
3 16 19 23 
3 19 17 24 
3 21 14 20 
3 20 15 22 
3 25 18 21 
3 22 16 23 
3 23 19 26 
3 19 24 26 
3 21 20 27 
3 20 22 28 
3 25 21 29 
3 22 23 30 
3 23 26 31 
3 26 24 32 
3 29 21 27 
3 27 20 28 
3 28 22 30 
3 33 25 29 
3 30 23 31 
3 31 26 34 
3 26 32 34 
3 29 27 35 
3 27 28 36 
3 28 30 37 
3 33 29 38 
3 30 31 39 
3 31 34 40 
3 34 32 41 
3 38 29 35 
3 35 27 36 
3 36 28 37 
3 37 30 39 
3 42 33 38 
3 39 31 40 
3 40 34 43 
3 34 41 43 
3 38 35 44 
3 35 36 45 
3 36 37 46 
3 37 39 47 
3 42 38 48 
3 39 40 49 
3 40 43 50 
3 43 41 51 
3 44 35 45 
3 48 38 44 
3 45 36 46 
3 46 37 47 
3 47 39 49 
3 49 40 50 
3 50 43 52 
3 43 51 52 
3 44 45 53 
3 48 44 54 
3 45 46 55 
3 46 47 56 
3 47 49 57 
3 49 50 58 
3 50 52 59 
3 54 44 53 
3 53 45 55 
3 55 46 56 
3 56 47 57 
3 57 49 58 
3 58 50 59 
3 54 53 60 
3 53 55 61 
3 55 56 62 
3 56 57 63 
3 57 58 64 
3 58 59 65 
3 60 53 61 
3 61 55 62 
3 62 56 63 
3 63 57 64 
3 64 58 65 
3 60 61 66 
3 61 62 67 
3 62 63 68 
3 63 64 69 
3 64 65 70 
3 66 61 67 
3 67 62 68 
3 68 63 69 
3 69 64 70 
3 66 67 71 
3 67 68 72 
3 68 69 73 
3 69 70 74 
3 71 67 72 
3 72 68 73 
3 73 69 74 
3 71 72 75 
3 72 73 76 
3 73 74 77 
3 75 72 76 
3 76 73 77 
3 75 76 78 
3 76 77 79 
3 78 76 79 
3 78 79 80 
